# xmcd CD database file
#
# Track frame offsets:
#	150
#	16432
#	38172
#
# Disc length: 746 seconds
#
# Revision: 4
# Processed by: cddbd v1.5.2PL0 Copyright (c) Steve Scherf et al.
# Submitted via: CDex 1.97
#
DISCID=1b02e803
DTITLE=Orcrist - Primitive Damnation
DYEAR=2002
DGENRE=Black Metal
TTITLE0=My Father is the Night-Wolf
TTITLE1=Samankallingen
TTITLE2=Primitive Damnation
EXTD=YEAR: 2002
EXTT0=
EXTT1=
EXTT2=
PLAYORDER=
